<svg xmlns="http://www.w3.org/2000/svg" viewBox="0 0 24 24" fill="currentColor">
  <path d="M1.9 12.4c-.1-.6.3-1 .9-1h8.4c.5 0 .9.4.9 1v.1c0 .6-.4 1-.9 1H2.8c-.6 0-1-.4-.9-1.1zm.4 3.2c-.1-.6.3-1 .9-1h6.2c.5 0 .9.4.9 1v.1c0 .6-.4 1-.9 1H3.2c-.6 0-1-.4-.9-1.1zM16.7 8.1c-.4-.2-.7-.3-1.2-.3-2.2 0-3.9 1.8-3.9 4.1 0 2.4 1.7 4.1 4 4.1.5 0 .9-.1 1.3-.3l.1-.1v1.1c0 .4.3.7.7.7s.7-.3.7-.7V8.8c0-.3-.1-.5-.4-.6l-.1-.1h-.2zm-.4 5.7c-.3.2-.6.3-1 .3-1.3 0-2.2-1-2.2-2.5s.9-2.5 2.2-2.5c.4 0 .7.1 1 .3v4.4zm4.9-5.8c-.4-.2-.8-.3-1.3-.3-2.2 0-3.9 1.8-3.9 4.1 0 2.4 1.7 4.1 4 4.1.5 0 1-.1 1.4-.3l.1-.1v1.1c0 .4.3.7.7.7s.7-.3.7-.7V8.8c0-.3-.2-.5-.4-.6l-.1-.1h-.2zm-.3 5.8c-.3.2-.7.3-1.1.3-1.3 0-2.2-1-2.2-2.5s.9-2.5 2.2-2.5c.4 0 .8.1 1.1.3v4.4z"/>
</svg>
